<?xml version="1.0" encoding="UTF-8" standalone="no"?>
<svg
   xmlns:dc="http://purl.org/dc/elements/1.1/"
   xmlns:cc="http://creativecommons.org/ns#"
   xmlns:rdf="http://www.w3.org/1999/02/22-rdf-syntax-ns#"
   xmlns:svg="http://www.w3.org/2000/svg"
   xmlns="http://www.w3.org/2000/svg"
   xmlns:xlink="http://www.w3.org/1999/xlink"
   id="svg8"
   version="1.1"
   viewBox="0 0 238.12499 31.750001"
   height="120"
   width="900">
  <defs
     id="defs2">
    <linearGradient
       id="linearGradient1539">
      <stop
         id="stop1535"
         offset="0"
         style="stop-color:#026692;stop-opacity:1;" />
      <stop
         id="stop1537"
         offset="1"
         style="stop-color:#027b92;stop-opacity:1" />
    </linearGradient>
    <linearGradient
       gradientUnits="userSpaceOnUse"
       y2="31.378157"
       x2="0.37184328"
       y1="0.37184328"
       x1="237.75314"
       id="linearGradient1541"
       xlink:href="#linearGradient1539" />
  </defs>
  <metadata
     id="metadata5">
    <rdf:RDF>
      <cc:Work
         rdf:about="">
        <dc:format>image/svg+xml</dc:format>
        <dc:type
           rdf:resource="http://purl.org/dc/dcmitype/StillImage" />
        <dc:title></dc:title>
      </cc:Work>
    </rdf:RDF>
  </metadata>
  <g
     id="layer1">
    <rect
       y="0.37184328"
       x="0.37184328"
       height="31.006313"
       width="237.3813"
       id="rect1475"
       style="fill:url(#linearGradient1541);fill-opacity:1;stroke:none;stroke-width:0.743686;stroke-linecap:round;stroke-opacity:1" />
    <path
       d="M 94.557766,8.2187757 Q 94.24453,7.8091587 93.810818,7.4959222 93.389153,7.1826857 92.895203,6.9658296 92.413301,6.7489735 91.883208,6.6405455 91.365163,6.5200699 90.883261,6.5200699 q -0.698759,0 -1.445707,0.2168561 -0.734901,0.2048085 -1.349327,0.6023779 -0.614425,0.3975695 -1.011995,0.9517572 -0.385522,0.5541877 -0.385522,1.2408986 0,1.3252313 1.722801,1.8191813 0.867425,0.252999 1.819182,0.518045 0.963804,0.265046 2.02399,0.554188 2.084227,0.554188 3.855219,1.650515 1.7228,1.072233 1.7228,3.45765 0,2.698653 -2.240846,3.963647 -2.264941,1.264993 -4.758785,1.264993 -2.252894,0 -4.662406,-1.216803 -2.445654,-1.216803 -2.445654,-3.915457 h 2.240846 q 0,1.626421 1.807134,2.325179 0.903567,0.349379 1.650515,0.505998 0.758996,0.14457 1.38547,0.14457 1.469802,0 3.168508,-0.734901 1.638468,-0.698758 1.638468,-2.240846 0,-1.67461 -1.746896,-2.301083 -0.855377,-0.301189 -1.843277,-0.578283 -0.9879,-0.289142 -1.999895,-0.590331 -1.011995,-0.313236 -1.999895,-0.662615 -0.987899,-0.34938 -1.831229,-0.807187 -1.734848,-0.915614 -1.734848,-3.1564603 0,-2.349274 1.999895,-3.6986006 1.024042,-0.6987585 2.12037,-1.0481377 1.108376,-0.3614267 2.301084,-0.3614267 0.746949,0 1.505945,0.1566182 0.771044,0.1445707 1.48185,0.4457597 0.722853,0.301189 1.349326,0.7589962 0.626473,0.4578073 1.108376,1.0842803 0,0.012048 -0.89152,0.6867109 -0.879472,0.6626157 -0.879472,0.6626157 z"
       style="font-style:normal;font-variant:normal;font-weight:normal;font-stretch:normal;font-size:24.6734px;line-height:1.25;font-family:Skeirs;-inkscape-font-specification:Skeirs;fill:#ffffff;fill-opacity:1;stroke:none;stroke-width:0.616836"
       id="path1408" />
    <path
       d="m 100.73816,4.797269 h 2.24085 v 8.601957 l 8.614,-8.601957 h 2.93961 l -7.18035,7.20444 7.93935,10.75847 h -2.61432 l -6.80688,-9.288668 -2.89141,2.86732 v 6.144255 h -2.24085 z"
       style="font-style:normal;font-variant:normal;font-weight:normal;font-stretch:normal;font-size:24.6734px;line-height:1.25;font-family:Skeirs;-inkscape-font-specification:Skeirs;fill:#ffffff;fill-opacity:1;stroke:none;stroke-width:0.616836"
       id="path1410" />
    <path
       d="m 117.60475,15.423216 q 0,-0.831282 0.36143,-1.505945 0.36142,-0.686711 0.95175,-1.168613 0.59033,-0.49395 1.33728,-0.758996 0.74695,-0.265047 1.53004,-0.265047 h 2.51794 l -3.25284,-6.9755362 h 2.46975 L 131.76063,22.4108 h -8.81881 v -2.16856 h 5.33707 l -3.09623,-6.626158 h -3.39741 q -0.42166,0 -0.78309,0.132523 -0.36143,0.120476 -0.63852,0.361427 -0.27709,0.228904 -0.43371,0.566235 -0.15662,0.337332 -0.15662,0.746949 l -0.0121,11.902988 h -2.14446 z"
       style="font-style:normal;font-variant:normal;font-weight:normal;font-stretch:normal;font-size:24.6734px;line-height:1.25;font-family:Skeirs;-inkscape-font-specification:Skeirs;fill:#ffffff;fill-opacity:1;stroke:none;stroke-width:0.616836"
       id="path1412" />
    <path
       d="m 132.616,22.483086 7.25263,-15.5654466 -0.97585,-2.0962753 2.33723,-0.301189 8.37305,17.9629109 z m 13.50532,-2.168561 -5.01179,-10.7464226 -5.01178,10.7464226 z"
       style="font-style:normal;font-variant:normal;font-weight:normal;font-stretch:normal;font-size:24.6734px;line-height:1.25;font-family:Skeirs;-inkscape-font-specification:Skeirs;fill:#ffffff;fill-opacity:1;stroke:none;stroke-width:0.616836"
       id="path1414" />
    <path
       d="m 152.15715,4.797269 h 2.24084 v 17.685817 h -2.24084 z"
       style="font-style:normal;font-variant:normal;font-weight:normal;font-stretch:normal;font-size:24.6734px;line-height:1.25;font-family:Skeirs;-inkscape-font-specification:Skeirs;fill:#ffffff;fill-opacity:1;stroke:none;stroke-width:0.616836"
       id="path1416" />
  </g>
</svg>
